<svg xmlns="http://www.w3.org/2000/svg" width="320" height="132" fill="none" viewBox="0 0 320 132">
  <path stroke="#000" stroke-width="5.375" d="M13.338 66c0-16.892 0-25.338 5.246-30.587 5.253-5.246 13.695-5.246 30.587-5.246s25.338 0 30.584 5.246c5.25 5.253 5.25 13.695 5.25 30.587s0 25.338-5.25 30.584c-5.243 5.249-13.692 5.249-30.584 5.249s-25.338 0-30.587-5.25c-5.246-5.241-5.246-13.69-5.246-30.583Z"/>
  <path stroke="#000" stroke-linecap="round" stroke-width="5.375" d="M27.671 48.083v35.834" opacity=".5"/>
  <path stroke="#000" stroke-width="5.375" d="M45.588 66a10.748 10.748 0 0 1 18.351-7.601A10.75 10.75 0 1 1 45.588 66Z"/>
  <path stroke="#000" stroke-linecap="round" stroke-width="5.375" d="m65.296 57.042 5.375-5.375M42.004 80.333l5.375-5.375m0-17.916-5.375-5.375m28.667 28.666-5.375-5.375" opacity=".5"/>
  <path fill="#000" d="M111.083 49.716h6.9l9.241 22.554h.365l9.24-22.554h6.901v31.126h-5.411V59.458h-.289l-8.602 21.293h-4.043l-8.602-21.339h-.289v21.43h-5.411V49.716Zm41.963 39.88a11.1 11.1 0 0 1-2.082-.182c-.628-.111-1.13-.243-1.505-.395l1.277-4.286c.8.233 1.515.344 2.143.334a2.632 2.632 0 0 0 1.657-.592c.486-.375.896-1.004 1.231-1.885l.471-1.261-8.466-23.832h5.836l5.381 17.63h.243l5.395-17.63h5.852l-9.347 26.172c-.436 1.236-1.013 2.295-1.733 3.177a7.043 7.043 0 0 1-2.644 2.036c-1.034.476-2.27.714-3.709.714Zm21.483-8.754V49.716h5.639v26.4h13.709v4.726h-19.348Zm34.181.456c-2.279 0-4.255-.502-5.927-1.505-1.672-1.003-2.969-2.406-3.891-4.21-.912-1.803-1.368-3.91-1.368-6.322s.456-4.524 1.368-6.338c.922-1.814 2.219-3.222 3.891-4.225 1.672-1.003 3.648-1.505 5.927-1.505 2.28 0 4.256.502 5.928 1.505 1.672 1.003 2.964 2.411 3.875 4.225.923 1.814 1.384 3.926 1.384 6.338 0 2.411-.461 4.519-1.384 6.322-.911 1.804-2.203 3.207-3.875 4.21-1.672 1.003-3.648 1.505-5.928 1.505Zm.031-4.407c1.236 0 2.27-.34 3.1-1.019.831-.689 1.449-1.61 1.855-2.766.415-1.155.623-2.442.623-3.86 0-1.429-.208-2.72-.623-3.876-.406-1.165-1.024-2.092-1.855-2.781-.83-.69-1.864-1.034-3.1-1.034-1.267 0-2.32.345-3.161 1.034-.831.689-1.454 1.616-1.87 2.781-.405 1.155-.608 2.447-.608 3.876 0 1.418.203 2.705.608 3.86.416 1.155 1.039 2.077 1.87 2.766.841.68 1.894 1.019 3.161 1.019Zm26.008 4.407c-2.33 0-4.331-.512-6.003-1.535-1.662-1.023-2.944-2.437-3.845-4.24-.892-1.814-1.338-3.901-1.338-6.262 0-2.371.456-4.463 1.368-6.277.912-1.824 2.199-3.242 3.86-4.256 1.672-1.023 3.648-1.535 5.928-1.535 1.895 0 3.571.35 5.031 1.049 1.469.689 2.639 1.667 3.51 2.933.872 1.257 1.368 2.726 1.49 4.408h-5.259c-.213-1.125-.719-2.062-1.52-2.812-.79-.76-1.849-1.14-3.176-1.14-1.125 0-2.113.304-2.964.912-.851.598-1.515 1.46-1.991 2.584-.466 1.125-.699 2.472-.699 4.043 0 1.59.233 2.958.699 4.103.466 1.135 1.12 2.011 1.961 2.63.851.607 1.849.911 2.994.911.81 0 1.535-.151 2.173-.455a4.36 4.36 0 0 0 1.626-1.353c.436-.588.735-1.302.897-2.143h5.259c-.132 1.651-.618 3.116-1.459 4.392-.841 1.267-1.986 2.26-3.435 2.98-1.449.708-3.151 1.063-5.107 1.063Zm19.534-7.782-.015-6.641h.881l8.39-9.378h6.429l-10.32 11.49h-1.14l-4.225 4.53Zm-5.015 7.326V49.716h5.501v31.126h-5.501Zm14.651 0-7.599-10.624 3.708-3.875 10.472 14.5h-6.581Zm19.089.456c-2.34 0-4.362-.486-6.064-1.459-1.692-.983-2.994-2.371-3.906-4.164-.912-1.804-1.368-3.927-1.368-6.368 0-2.402.456-4.51 1.368-6.323.922-1.824 2.209-3.242 3.86-4.256 1.652-1.023 3.592-1.535 5.821-1.535 1.439 0 2.797.233 4.074.7a9.213 9.213 0 0 1 3.404 2.127c.993.963 1.773 2.189 2.341 3.678.567 1.48.851 3.243.851 5.29v1.686h-19.135v-3.708h13.861c-.01-1.054-.238-1.991-.684-2.812a4.972 4.972 0 0 0-1.87-1.96c-.79-.477-1.712-.715-2.766-.715-1.124 0-2.112.274-2.963.821a5.654 5.654 0 0 0-1.991 2.128 6.123 6.123 0 0 0-.715 2.872v3.238c0 1.357.249 2.523.745 3.495.497.963 1.191 1.702 2.082 2.22.892.506 1.935.76 3.131.76.801 0 1.525-.112 2.173-.335a4.814 4.814 0 0 0 1.687-1.019 4.243 4.243 0 0 0 1.08-1.656l5.137.577a8.017 8.017 0 0 1-1.855 3.557c-.901 1.003-2.056 1.783-3.465 2.34-1.408.547-3.019.821-4.833.821Zm15.035-.456V57.497h5.335v3.891h.243c.426-1.347 1.155-2.386 2.189-3.116 1.043-.74 2.234-1.11 3.571-1.11.304 0 .644.016 1.018.047.386.02.705.055.958.106v5.061c-.233-.081-.603-.152-1.109-.213-.497-.07-.978-.106-1.444-.106-1.003 0-1.905.218-2.706.653a4.783 4.783 0 0 0-1.869 1.779c-.456.76-.684 1.636-.684 2.629v13.724h-5.502Z"/>
</svg>
