<svg xmlns="http://www.w3.org/2000/svg" width="196" height="196" fill="none" viewBox="0 0 196 196">
  <path stroke="#000" stroke-width="12.25" d="M16.333 98c0-38.498 0-57.746 11.956-69.71C40.262 16.332 59.502 16.332 98 16.332s57.747 0 69.703 11.956C179.667 40.262 179.667 59.502 179.667 98s0 57.747-11.964 69.703c-11.948 11.964-31.205 11.964-69.703 11.964-38.498 0-57.746 0-69.71-11.964C16.332 155.755 16.332 136.498 16.332 98Z"/>
  <path stroke="#000" stroke-linecap="round" stroke-width="12.25" d="M49 57.167v81.666" opacity=".5"/>
  <path stroke="#000" stroke-width="12.25" d="M89.833 98a24.5 24.5 0 1 1 49.001 0 24.5 24.5 0 0 1-49 0Z"/>
  <path stroke="#000" stroke-linecap="round" stroke-width="12.25" d="M134.75 77.583 147 65.333m-65.333 65.334 12.25-12.25m0-40.834-12.25-12.25M147 130.667l-12.25-12.25" opacity=".5"/>
</svg>
